# xmcd CD database file
# Generated: Mon Apr 21 07:48:41 2003 by KSCD
# 
# Track frame offsets:
#       150
#       14745
#       43532
#       61242
#       78117
#       95395
#       115710
#       128625
#       145875
#       179160
#
# Disc length: 2598 seconds
#
# Revision: 2
# Processed by: cddbd v1.4PL0 Copyright (c) Steve Scherf et al.
# Submitted via: Kscd 1.3.3
#
DISCID=810a240a
DTITLE=Johnny Winter - The Progressive Blues Experiment
DYEAR=1900
DGENRE=
TTITLE0=Rollin' and tumblin'
TTITLE1=Tribute to Muddy
TTITLE2=I got love if you want it
TTITLE3=Bad luck and trouble
TTITLE4=Help me
TTITLE5=Mean town blues
TTITLE6=Broke down engine
TTITLE7=Black cat bone
TTITLE8=It's my own fault
TTITLE9=Forty-four
EXTD=
EXTT0=
EXTT1=
EXTT2=
EXTT3=
EXTT4=
EXTT5=
EXTT6=
EXTT7=
EXTT8=
EXTT9=
PLAYORDER=
